# Blender v2.79 (sub 0) OBJ File: ''
# www.blender.org
o Sphere
v 0.000000 -0.000000 -1.000000
v 1.000000 -0.000000 -0.000000
v -0.000000 -1.000000 -0.000000
v -0.000000 -0.000000 1.000000
v -1.000000 0.000000 -0.000000
v 0.000000 1.000000 -0.000000
vt 0.000000 0.000000
vt 1.000000 0.000000
vt 1.000000 1.000000
vt 1.000000 0.000000
vt 1.000000 1.000000
vt 0.000000 0.000000
vt 1.000000 1.000000
vt 0.000000 0.000000
vt 1.000000 0.000000
vt 1.000000 1.000000
vt 0.000000 0.000000
vt 1.000000 0.000000
vt 1.000000 1.000000
vt 1.000000 0.000000
vt 0.000000 0.000000
vn 0.5774 0.5774 0.5774
vn 0.5774 0.5774 -0.5774
vn 0.5774 -0.5774 0.5774
vn -0.5774 -0.5774 -0.5774
vn -0.5774 -0.5774 0.5774
vn -0.5774 0.5774 0.5774
vn -0.5774 0.5774 -0.5774
vn 0.5774 -0.5774 -0.5774
s off
f 6/1/1 4/2/1 2/3/1
f 6/1/2 2/4/2 1/5/2
f 3/6/3 2/4/3 4/7/3
f 5/8/4 1/9/4 3/10/4
f 4/11/5 5/12/5 3/10/5
f 5/8/6 4/2/6 6/13/6
f 5/8/7 6/14/7 1/5/7
f 1/15/8 2/4/8 3/10/8
